# xmcd
#
# Track frame offsets:
#	150
#	18212
#	42662
#	57362
#	71987
#	87362
#	101525
#	116900
#	131462
#	149512
#	168237
#	186925
#
# Disc length: 2685 seconds
#
# Revision: 1
# Processed by: cddbd v1.4PL0 Copyright (c) Steve Scherf et al.
# Submitted via: audiograbber 1.81.01
#
DISCID=b10a7b0c
DTITLE=Che and Ray - Jubilee
DYEAR=1995
DGENRE=Boogie Woogie
TTITLE0=Country Boogie Woogie
TTITLE1=Piano Rhythm'n groove
TTITLE2=That's why I call her honey
TTITLE3=Dark brown eyes
TTITLE4=All over the Blues
TTITLE5=Throw a party for the Blues
TTITLE6=Che's Dead- End- Boogie
TTITLE7=Your turn to cry
TTITLE8=767 Blues
TTITLE9=It takes time
TTITLE10=Black hands soul
TTITLE11=Ray's first Waltz
EXTD=
EXTT0=
EXTT1=
EXTT2=
EXTT3=
EXTT4=
EXTT5=
EXTT6=
EXTT7=
EXTT8=
EXTT9=
EXTT10=
EXTT11=
PLAYORDER=
